<?xml version="1.0" encoding="UTF-8" standalone="no"?>
<svg
   fill="none"
   height="130"
   viewBox="0 0 400 130"
   width="400"
   version="1.1"
   id="svg6"
   sodipodi:docname="woods-wordmark-black.svg"
   inkscape:export-filename="woods-wordmark-black.png"
   inkscape:export-xdpi="192"
   inkscape:export-ydpi="192"
   inkscape:version="1.4.2 (ebf0e940, 2025-05-08)"
   xmlns:inkscape="http://www.inkscape.org/namespaces/inkscape"
   xmlns:sodipodi="http://sodipodi.sourceforge.net/DTD/sodipodi-0.dtd"
   xmlns="http://www.w3.org/2000/svg"
   xmlns:svg="http://www.w3.org/2000/svg">
  <defs
     id="defs6" />
  <sodipodi:namedview
     id="namedview6"
     pagecolor="#505050"
     bordercolor="#eeeeee"
     borderopacity="1"
     inkscape:showpageshadow="0"
     inkscape:pageopacity="0"
     inkscape:pagecheckerboard="0"
     inkscape:deskcolor="#505050"
     showgrid="false"
     inkscape:export-bgcolor="#ffffffff"
     inkscape:zoom="2.2475"
     inkscape:cx="200"
     inkscape:cy="64.961068"
     inkscape:window-width="1512"
     inkscape:window-height="921"
     inkscape:window-x="0"
     inkscape:window-y="33"
     inkscape:window-maximized="1"
     inkscape:current-layer="svg6" />
  <g
     transform="translate(-5.26006 7)"
     id="g6">
    <g
       fill="none"
       stroke="#15140f"
       stroke-width="3.4"
       id="g4">
      <circle
         cx="74"
         cy="58"
         r="49"
         id="circle1" />
      <circle
         cx="71"
         cy="61"
         r="38"
         id="circle2" />
      <circle
         cx="75"
         cy="57"
         r="27"
         id="circle3" />
      <circle
         cx="72"
         cy="60"
         r="16"
         id="circle4" />
    </g>
    <circle
       cx="73"
       cy="59"
       fill="#15140f"
       r="4.4"
       id="circle5" />
    <path
       d="m73 59-43-25"
       stroke="#15140f"
       stroke-linecap="round"
       stroke-width="2.4"
       id="path5" />
    <path
       d="m168.148 86.450001-3.864-29.988-4.032 29.988h-14.364l-6.636-44.604h12.18l2.94 36.288 4.62-30.66h11.256l4.116 30.66 3.024-36.288h11.76l-6.384 44.604zm46.87203-46.116q10.164 0 15.876 6.468 5.796 6.384 5.796 17.22 0 11.256-5.712 17.556-5.712 6.3-15.96 6.3-10.248 0-15.96-6.216-5.712-6.3-5.712-17.556 0-7.14 2.52-12.432 2.604-5.376 7.476-8.316 4.956-3.024 11.676-3.024zm0 9.828q-4.116 0-6.048 3.36-1.932 3.276-1.932 10.584 0 7.392 1.932 10.752 1.932 3.276 6.048 3.276 4.116 0 6.048-3.36 1.932-3.36 1.932-10.752 0-7.224-1.932-10.5-1.932-3.36-6.048-3.36zm50.82003-9.828q10.164 0 15.876 6.468 5.796 6.384 5.796 17.22 0 11.256-5.712 17.556-5.712 6.3-15.96 6.3-10.248 0-15.96-6.216-5.712-6.3-5.712-17.556 0-7.14 2.52-12.432 2.604-5.376 7.476-8.316 4.956-3.024 11.676-3.024zm0 9.828q-4.116 0-6.048 3.36-1.932 3.276-1.932 10.584 0 7.392 1.932 10.752 1.932 3.276 6.048 3.276 4.116 0 6.048-3.36 1.932-3.36 1.932-10.752 0-7.224-1.932-10.5-1.932-3.36-6.048-3.36zm70.14004-26.04v62.328h-11.76l-.672-4.872q-2.016 2.856-5.124 4.62-3.108 1.68-7.224 1.68-8.064 0-12.264-6.384-4.116-6.384-4.116-17.472 0-6.888 2.184-12.264 2.184-5.376 6.216-8.4 4.032-3.024 9.408-3.024 6.048 0 10.08 4.2v-21.84zm-19.824 25.956q-3.612 0-5.628 3.444-2.016 3.36-2.016 10.584 0 7.728 1.764 10.92 1.848 3.108 5.124 3.108 4.2 0 7.308-5.124v-19.236q-1.428-1.848-3.024-2.772-1.512-.924-3.528-.924zm49.89602 28.308q3.444 0 5.376-1.008 2.016-1.092 2.016-3.192 0-1.512-.84-2.436-.756-.924-2.94-1.764-2.184-.924-6.804-2.184-6.72-1.764-10.248-4.872-3.528-3.192-3.528-8.736 0-6.132 5.04-9.996 5.124-3.864 14.28-3.864 10.584 0 18.06 5.46l-5.292 7.812q-6.132-3.78-12.348-3.78-3.276 0-4.872.84-1.512.84-1.512 2.604 0 1.176.756 2.016.84.756 3.024 1.596 2.268.84 6.72 2.1 4.788 1.344 7.812 2.94 3.108 1.596 4.788 4.284 1.68 2.688 1.68 6.888 0 4.704-2.856 8.064-2.856 3.36-7.644 5.04-4.788 1.68-10.584 1.68-6.216 0-11.256-1.764-5.04-1.764-8.568-4.956l6.636-7.476q6.048 4.704 13.104 4.704z"
       style="font-weight:bold;font-size:84;font-family:Fira Mono;letter-spacing:.005em;dominant-baseline:central;fill:#15140f"
       id="path6" />
  </g>
</svg>
